Coordinates
nRows=273
nColumns=2
inDegrees=yes
endheader
time	ankle_angle_r	
2.59476	  9.368896	
2.62802	  9.417225	
2.66129	  9.455152	
2.69456	  9.417418	
2.72782	  9.368896	
2.76109	  9.490967	
2.79435	  9.460449	
2.82762	  9.420937	
2.86089	  9.475708	
2.89415	  9.445190	
2.92742	  9.463871	
2.96069	  9.502707	
2.99395	  9.494582	
3.02722	  9.487255	
3.06048	  9.502417	
3.09375	  9.487062	
3.12702	  9.445190	
3.16028	  9.506226	
3.19355	  9.528352	
3.22681	  9.512899	
3.26008	  9.536743	
3.29335	  9.504424	
3.32661	  9.490967	
3.35988	  9.485066	
3.39315	  9.516708	
3.42641	  9.470836	
3.45968	  9.485998	
3.49294	  9.526550	
3.52621	  9.501063	
3.55948	  9.470448	
3.59274	  9.466614	
3.62601	  9.490967	
3.65927	  9.521484	
3.69254	  9.384155	
3.72581	  9.460449	
3.75907	  9.464029	
3.79234	  9.399414	
3.8256	  9.390188	
3.85887	  9.469579	
3.89214	  9.417480	
3.9254	  9.414673	
3.95867	  9.447611	
3.99194	  9.414673	
4.0252	  9.362284	
4.05847	  9.451900	
4.09173	  9.384155	
4.125	  9.428478	
4.15827	  9.445190	
4.19153	  9.377059	
4.2248	  9.361704	
4.25806	  9.399414	
4.29133	  9.445190	
4.3246	  9.391932	
4.35786	  9.498547	
4.39113	  9.422256	
4.4244	  9.475995	
4.45766	  9.536743	
4.49093	  9.514866	
4.52419	  9.444324	
4.55746	  9.527523	
4.59073	  9.552002	
4.62399	  9.513131	
4.65726	  9.514675	
4.69052	  9.512938	
4.72379	  9.504198	
4.75706	  9.506226	
4.79032	  9.484545	
4.82359	  9.484641	
4.85685	  9.536743	
4.89012	  9.527617	
4.92339	  9.475708	
4.95665	  9.502845	
4.98992	  9.521484	
5.02319	  9.494735	
5.05645	  9.496615	
5.08972	  9.474311	
5.12298	  9.435387	
5.15625	  9.445190	
5.18952	  9.414673	
5.22278	  9.440263	
5.25605	  9.414673	
5.28931	  9.409358	
5.32258	  9.389030	
5.35585	  9.465228	
5.38911	  9.368896	
5.42238	  9.419258	
5.45565	  9.414673	
5.48891	  9.466925	
5.52218	  9.403709	
5.55544	  9.482570	
5.58871	  9.425830	
5.62198	  9.418678	
5.65524	  9.441282	
5.68851	  9.426120	
5.72177	  9.448906	
5.75504	  9.479326	
5.78831	  9.365375	
5.82157	  9.391006	
5.85484	  9.460449	
5.8881	  9.441958	
5.92137	  9.424078	
5.95464	  9.457411	
5.9879	  9.488026	
6.02117	  9.435621	
6.05444	  9.567261	
6.0877	  9.508877	
6.12097	  9.526594	
6.15423	  9.547086	
6.1875	  9.506226	
6.22077	  9.495497	
6.25403	  9.536743	
6.2873	  9.488895	
6.32056	  9.510175	
6.35383	  9.527119	
6.3871	  9.494530	
6.42036	  9.536743	
6.45363	  9.552002	
6.4869	  9.458958	
6.52016	  9.493756	
6.55343	  9.477006	
6.58669	  9.446392	
6.61996	  9.461554	
6.65323	  9.462465	
6.68649	  9.416495	
6.71976	  9.460449	
6.75302	  9.535308	
6.78629	  9.491588	
6.81956	  9.506226	
6.85282	  9.475708	
6.88609	  9.475708	
6.91935	  9.414204	
6.95262	  9.475845	
6.98589	  9.445190	
7.01915	  9.490911	
7.05242	  9.414368	
7.08569	  9.415171	
7.11895	  9.429240	
7.15222	  9.445190	
7.18548	  9.460449	
7.21875	  9.490331	
7.25202	  9.445923	
7.28528	  9.459620	
7.31855	  9.521484	
7.35181	  9.565216	
7.38508	  9.505106	
7.41835	  9.503794	
7.45161	  9.565948	
7.48488	  9.535334	
7.51815	  9.538249	
7.55141	  9.565659	
7.58468	  9.519785	
7.61794	  9.508021	
7.65121	  9.523377	
7.68448	  9.519495	
7.71774	  9.547830	
7.75101	  9.562895	
7.78427	  9.554281	
7.81754	  9.549625	
7.85081	  9.567261	
7.88407	  9.521484	
7.91734	  9.536743	
7.9506	  9.595016	
7.98387	  9.536743	
8.01714	  9.536743	
8.0504	  9.564208	
8.08367	  9.506226	
8.11694	  9.524731	
8.1502	  9.506226	
8.18347	  9.445190	
8.21673	  9.514412	
8.25	  9.517851	
8.28327	  9.456719	
8.31653	  9.441364	
8.3498	  9.483121	
8.38306	  9.452410	
8.41633	  9.521484	
8.4496	  9.456236	
8.48286	  9.473379	
8.51613	  9.440784	
8.5494	  9.429932	
8.58266	  9.429932	
8.61593	  9.481574	
8.64919	  9.491846	
8.68246	  9.450080	
8.71573	  9.455462	
8.74899	  9.490967	
8.78226	  9.496147	
8.81552	  9.485690	
8.84879	  9.516111	
8.88206	  9.542213	
8.91532	  9.572827	
8.94859	  9.517552	
8.98185	  9.521484	
9.01512	  9.557858	
9.04839	  9.527438	
9.08165	  9.509384	
9.11492	  9.567261	
9.14819	  9.573504	
9.18145	  9.506226	
9.21472	  9.558439	
9.24798	  9.582520	
9.28125	  9.552002	
9.31452	  9.599583	
9.34778	  9.567261	
9.38105	  9.582520	
9.41431	  9.536743	
9.44758	  9.574374	
9.48085	  9.515112	
9.51411	  9.513533	
9.54738	  9.567261	
9.58065	  9.414673	
9.61391	  9.529146	
9.64718	  9.475708	
9.68044	  9.422463	
9.71371	  9.506742	
9.74698	  9.490967	
9.78024	  9.468530	
9.81351	  9.461545	
9.84677	  9.436916	
9.88004	  9.443707	
9.91331	  9.497758	
9.94657	  9.482403	
9.97984	  9.484368	
10.0131	  9.493223	
10.0464	  9.506226	
10.0796	  9.447833	
10.1129	  9.490967	
10.1462	  9.497082	
10.1794	  9.460449	
10.2127	  9.494383	
10.246	  9.540353	
10.2792	  9.502422	
10.3125	  9.576888	
10.3458	  9.607503	
10.379	  9.536743	
10.4123	  9.542085	
10.4456	  9.567261	
10.4788	  9.516336	
10.5121	  9.582520	
10.5454	  9.592824	
10.5786	  9.495825	
10.6119	  9.567261	
10.6452	  9.597778	
10.6784	  9.547434	
10.7117	  9.560944	
10.745	  9.541118	
10.7782	  9.552002	
10.8115	  9.552002	
10.8448	  9.567261	
10.878	  9.552002	
10.9113	  9.540634	
10.9446	  9.517691	
10.9778	  9.544607	
11.0111	  9.487366	
11.0444	  9.533239	
11.0776	  9.445190	
11.1109	  9.524796	
11.1442	  9.503012	
11.1774	  9.426814	
11.2107	  9.506226	
11.244	  9.445190	
11.2772	  9.427104	
11.3105	  9.445190	
11.3437	  9.473074	
11.377	  9.501151	
11.4103	  9.519044	
11.4435	  9.503881	
11.4768	  9.414673	
11.5101	  9.460449	
11.5433	  9.458395	
11.5766	  9.405286	
11.6099	  9.477569	
11.6431	  9.458686	
